<svg width="20" height="30" viewBox="0 0 20 30" fill="none" xmlns="http://www.w3.org/2000/svg">
<path d="M9.82759 0C7.22207 0.00301168 4.72414 1.03938 2.88176 2.88176C1.03938 4.72414 0.00301168 7.22207 0 9.82759V20.1724C0 22.7789 1.0354 25.2785 2.87843 27.1216C4.72146 28.9646 7.22115 30 9.82759 30C12.434 30 14.9337 28.9646 16.7767 27.1216C18.6198 25.2785 19.6552 22.7789 19.6552 20.1724V9.82759C19.6522 7.22207 18.6158 4.72414 16.7734 2.88176C14.931 1.03938 12.4331 0.00301168 9.82759 0ZM18.6207 20.1724C18.6207 22.5045 17.6943 24.7411 16.0452 26.3901C14.3962 28.0391 12.1597 28.9655 9.82759 28.9655C7.49551 28.9655 5.25895 28.0391 3.60992 26.3901C1.9609 24.7411 1.03448 22.5045 1.03448 20.1724V9.82759C1.03448 7.49551 1.9609 5.25895 3.60992 3.60992C5.25895 1.9609 7.49551 1.03448 9.82759 1.03448C12.1597 1.03448 14.3962 1.9609 16.0452 3.60992C17.6943 5.25895 18.6207 7.49551 18.6207 9.82759V20.1724Z" fill="#BB8954"/>
<path d="M9.82757 4.13794C9.69039 4.13794 9.55883 4.19243 9.46183 4.28944C9.36483 4.38644 9.31033 4.518 9.31033 4.65518V12.931C9.31033 13.0682 9.36483 13.1998 9.46183 13.2968C9.55883 13.3938 9.69039 13.4483 9.82757 13.4483C9.96476 13.4483 10.0963 13.3938 10.1933 13.2968C10.2903 13.1998 10.3448 13.0682 10.3448 12.931V4.65518C10.3448 4.518 10.2903 4.38644 10.1933 4.28944C10.0963 4.19243 9.96476 4.13794 9.82757 4.13794Z" fill="#BB8954"/>
</svg>
