<svg width="112" height="109" viewBox="0 0 112 109" fill="none" xmlns="http://www.w3.org/2000/svg">
<path d="M75.9685 8.05406C77.0385 1.27406 81.9786 1.67406 83.8986 4.33406C88.9286 11.2941 93.4886 24.4841 96.1385 32.8141C97.5585 37.2641 101.319 40.1341 103.419 39.9341L103.389 38.8741C103.389 38.8741 99.5486 38.7841 96.9386 30.9141C94.6986 24.1841 89.8586 7.79406 84.6786 2.71406C79.4786 -2.37594 73.3886 0.0840554 72.2986 6.84406C71.2286 13.6141 69.1686 45.2641 69.1686 45.2641H72.9186C73.2986 39.4241 75.0085 14.0441 75.9685 8.05406Z" fill="#F2F2F2"/>
<path d="M94.9886 37.4339C88.2086 26.4039 86.9286 11.5239 82.7586 12.6939C80.1986 13.4039 81.2185 19.6139 81.2185 19.6139L84.1686 45.2739H85.7986C85.7986 45.2739 82.9986 25.1839 82.8886 23.1839C82.7886 21.3739 82.3286 17.3239 83.2686 17.1039C85.2586 16.6239 86.7285 27.6839 92.5885 36.6539C98.4685 45.6239 103.619 43.6339 103.619 43.6339L103.559 42.5239C100.819 42.6739 97.2286 41.1039 94.9886 37.4339Z" fill="#F2F2F2"/>
<path d="M107.109 80.7441C104.549 76.8841 100.868 74.1141 97.5785 72.2441C100.108 74.0841 102.639 76.4841 104.559 79.5241C111.789 90.9941 107.799 102.684 107.059 102.684H109.609C110.349 102.694 114.339 91.6141 107.109 80.7441Z" fill="#F2F2F2"/>
<path d="M85.5586 87.4641H89.7185C88.5885 83.1041 84.6286 79.894 79.9186 79.894C76.4486 79.894 73.3885 81.6441 71.5685 84.2941C70.9085 85.2441 70.4085 86.3141 70.1385 87.4641H81.8485H85.5586Z" fill="#F2F2F2"/>
<path d="M91.2686 88.6938C90.9386 88.6938 90.6185 88.7739 90.3485 88.9039C90.2285 88.9539 90.1085 89.0238 89.9985 89.0838C89.6385 89.3438 89.3685 89.7039 89.2185 90.1039H86.0685C86.0685 94.0839 82.8385 97.2939 78.8785 97.2939C77.3385 97.2939 75.9286 96.8239 74.7686 95.9939C75.0386 96.0439 75.3085 96.0538 75.5985 96.0538C79.0185 96.0538 81.8186 93.4439 82.1385 90.1039H71.1085C70.8985 89.5339 70.4485 89.0639 69.8685 88.8539C69.7485 88.7939 69.6085 88.7639 69.4885 88.7339C69.3385 88.7039 69.1986 88.6938 69.0486 88.6938C67.8286 88.6938 66.8285 89.6838 66.8285 90.9138C66.8285 92.1338 67.8186 93.1138 69.0486 93.1138C69.3786 93.1138 69.6985 93.0338 69.9685 92.9138C70.0485 92.8838 70.1186 92.8339 70.1786 92.7939C70.2386 93.0539 70.3286 93.3039 70.4386 93.5639C71.8586 97.4039 75.5586 100.154 79.9186 100.154C84.6686 100.154 88.6485 96.8939 89.7285 92.4939C90.1185 92.8739 90.6586 93.1138 91.2686 93.1138C92.4886 93.1138 93.4885 92.1338 93.4885 90.9138C93.4885 89.6838 92.4886 88.6938 91.2686 88.6938Z" fill="#F2F2F2"/>
<path d="M90.6686 48.374H89.3986C90.7586 49.644 92.4386 51.634 93.2986 54.294C94.8786 59.194 91.1086 65.804 86.2886 66.004L70.5586 66.154C67.4286 64.424 65.3185 61.064 65.3185 57.204C65.3185 54.374 66.4486 51.824 68.2686 49.974C68.8986 49.344 69.5985 48.794 70.3585 48.374H61.7085C60.4985 48.884 59.4185 49.614 58.4985 50.534C56.6785 52.374 55.5486 54.894 55.5486 57.694C55.5486 61.504 57.6586 64.834 60.7886 66.554V69.284C58.2886 70.314 51.0686 73.714 46.3986 80.754C39.1686 91.624 43.1586 102.694 43.8986 102.694H59.8086C59.8086 102.694 55.9086 95.564 57.3986 85.154C58.4386 77.844 64.5385 69.574 73.2285 69.574H91.5985V66.564C92.4385 66.094 93.1985 65.524 93.8785 64.844C95.7185 63.024 96.8485 60.484 96.8485 57.704C96.8485 56.464 96.6185 55.274 96.1985 54.174C95.2485 51.554 93.2286 49.444 90.6686 48.374Z" fill="#F2F2F2"/>
<path d="M52.5386 18.364H68.3185L68.9985 12.624C68.9985 12.624 59.1886 12.624 50.7786 12.624C51.6686 13.564 52.2886 14.804 52.5286 16.214C52.6386 16.954 52.6386 17.684 52.5386 18.364Z" fill="#F2F2F2"/>
<path d="M32.6586 31.6543C33.0086 26.6643 33.3686 23.6543 33.9386 21.6643V21.6443C34.3486 20.2443 34.8585 19.3643 35.5785 18.6743C36.0885 18.1643 36.7085 17.7543 37.4485 17.3143C37.4485 17.3143 38.7885 16.9343 39.1385 18.5543C39.1385 18.5543 38.9085 19.4143 38.7485 21.8243C38.7285 22.2143 38.6986 22.6543 38.6886 23.1543C38.6686 23.3343 38.6686 23.5143 38.6586 23.7143C38.6386 24.3443 38.6085 25.0543 38.6085 25.8443C38.5785 28.2743 38.6086 31.4243 38.7886 35.4643C39.4486 50.2343 40.6285 60.6043 42.6285 66.8743H46.5586C43.1986 56.8643 41.5285 35.6643 41.0985 25.8543C41.0685 25.1043 41.0386 24.4043 41.0186 23.8043C40.9986 23.2643 40.9885 22.7843 40.9885 22.3743V21.7443C40.9885 21.2643 41.0086 20.9343 41.0386 20.7643C41.2486 19.4543 41.8986 18.9743 42.4286 18.8043C42.4886 18.7843 42.5485 18.7543 42.6085 18.7543C42.7185 17.9843 42.7185 17.1543 42.5885 16.3143C42.5085 15.8343 42.4086 15.3843 42.2686 14.9443C41.9986 14.0743 41.6085 13.3043 41.1185 12.6343C40.7885 12.6843 40.4886 12.7143 40.1886 12.7743C37.2986 13.1643 36.1686 13.6943 36.1686 13.6943C36.0186 13.7743 35.8785 13.8643 35.7285 13.9343H35.7085C34.1585 14.8243 33.0385 15.8643 32.2385 17.0043V17.0243C32.2185 17.0443 32.2185 17.0443 32.2385 17.0543C30.0385 20.1543 30.0686 24.0043 29.4086 27.7443C28.5686 32.3843 25.5485 55.5543 21.8285 66.8843H31.6985C31.6585 61.9843 31.5686 47.2243 32.6586 31.6543Z" fill="#F2F2F2"/>
<path d="M48.5085 71.0139C48.3385 70.7839 48.1786 70.5439 48.0286 70.2739H43.2385C43.2385 70.2739 44.1585 72.2739 45.2385 73.9039C47.1085 72.0139 48.5085 71.0139 48.5085 71.0139Z" fill="#F2F2F2"/>
<path d="M20.5385 70.2742C20.4885 70.3942 20.4285 70.5142 20.3685 70.6342C16.0085 79.3942 4.44846 77.9442 1.58846 87.4242C-1.26154 96.9242 3.13851 102.394 3.13851 102.394L6.33846 102.424C5.31846 100.424 -0.641484 87.4942 12.1485 80.7042C12.1485 80.7042 1.28849 89.0542 9.49849 102.454L36.8585 102.694C36.5285 101.444 36.2885 100.224 36.1085 99.0442C34.7385 99.5842 33.2585 99.8842 31.7085 99.8842C27.4285 99.8842 23.6784 97.6242 21.5784 94.2342H29.0285C29.8585 94.5842 30.7585 94.7742 31.7085 94.7742C33.2885 94.7742 34.7485 94.2342 35.8985 93.3142C35.9885 92.1342 36.1385 91.0042 36.3485 89.9242H20.4885C20.3085 89.9242 20.1285 89.9042 19.9585 89.8442C19.0285 89.6142 18.3284 88.7742 18.3284 87.7642C18.3284 86.7242 19.0485 85.8642 20.0285 85.6542C21.1185 80.2142 25.9184 76.1142 31.6984 76.1142C32.2184 76.1142 32.7385 76.1542 33.2385 76.2242C32.6085 74.5542 31.8785 72.2542 31.7185 70.2642H20.5385V70.2742Z" fill="#F2F2F2"/>
<path d="M37.7986 85.0439C36.7086 82.7839 34.3885 81.2139 31.7085 81.2139C28.7985 81.2139 26.3085 83.0539 25.3485 85.6139H37.5885H38.0586C37.9786 85.4139 37.8986 85.2239 37.7986 85.0439Z" fill="#F2F2F2"/>
<path d="M44.0386 12.3842C44.0986 12.4542 44.1485 12.5442 44.2085 12.6242H48.1385C48.0585 12.5142 47.9785 12.3842 47.8885 12.2742C47.6185 11.9142 47.2886 11.5942 46.9386 11.3242H43.0085C43.2385 11.5042 43.4586 11.7042 43.6586 11.9242C43.7786 12.0642 43.9186 12.2142 44.0386 12.3842Z" fill="#F2F2F2"/>
<path d="M45.6786 16.3039C45.7986 17.1339 45.7985 17.9439 45.6985 18.7139C45.5285 19.9039 45.1285 20.9939 44.4885 21.8339H48.4386C49.0586 20.9939 49.4786 19.9039 49.6486 18.7139C49.7586 17.9439 49.7585 17.1339 49.6285 16.3039C49.5285 15.6639 49.3586 15.0739 49.1486 14.5039H45.2085C45.4185 15.0639 45.5886 15.6639 45.6786 16.3039Z" fill="#F2F2F2"/>
<path d="M0.63855 106.184V108.194L38.6385 107.644C38.2886 107.194 37.9886 106.704 37.7686 106.184H0.63855Z" fill="#F2F2F2"/>
<path d="M47.1985 107.654L82.3185 107.184L86.2886 106.184H46.1385C46.4785 106.714 46.8285 107.194 47.1985 107.654Z" fill="#F2F2F2"/>
</svg>
