<svg width="100" height="84" viewBox="0 0 100 84" fill="none" xmlns="http://www.w3.org/2000/svg">
<path d="M36.345 29.4699C36.645 30.1499 36.945 30.8299 37.215 31.5399V31.5599C37.265 31.7099 37.315 31.8599 37.365 32.0099C40.895 31.6699 44.325 31.4199 47.645 31.2399C47.385 30.2599 47.095 29.3099 46.775 28.3799C43.405 28.6299 39.925 28.9899 36.345 29.4699Z" fill="#BB8954"/>
<path d="M58.735 18.5899C62.245 18.6099 65.495 18.7599 68.485 19.0099C68.965 19.0399 69.435 19.0899 69.895 19.1299C69.745 18.8599 69.575 18.5999 69.425 18.3599C69.075 17.7899 68.705 17.2499 68.335 16.7199C64.395 16.2599 60.5751 16.0199 56.9351 15.9399C57.5651 16.7699 58.165 17.6499 58.735 18.5899Z" fill="#BB8954"/>
<path d="M65.165 13.0798C63.865 11.8398 62.465 10.7998 60.995 10.0098C60.545 10.7198 60.055 11.6498 59.745 12.4698C61.625 12.6298 63.435 12.8298 65.165 13.0798Z" fill="#BB8954"/>
<path d="M9.53503 26.5101C9.92503 25.5101 10.365 24.5501 10.835 23.6201C11.105 23.0901 11.375 22.5801 11.665 22.0801C11.375 22.2501 11.105 22.4301 10.835 22.6101C10.395 22.9101 9.95503 23.2401 9.53503 23.6101C8.44503 24.5201 7.43502 25.5901 6.52502 26.8001H9.42505C9.46505 26.6901 9.50503 26.6001 9.53503 26.5101Z" fill="#BB8954"/>
<path d="M18.4449 15.6699C18.5049 15.6499 18.565 15.6499 18.625 15.6499C19.645 15.6499 20.655 15.7699 21.645 15.9599C26.585 14.6799 31.305 13.7699 35.785 13.1499C33.825 11.9499 31.725 11.1699 29.525 10.9199C29.525 10.9199 28.515 11.1699 28.325 11.2099C25.345 11.9399 22.7349 12.7499 20.4449 13.5499C19.5849 13.8499 18.785 14.1499 18.045 14.4399C14.845 15.6899 12.6149 16.7999 11.5649 17.3699C13.1249 16.5799 14.765 16.0599 16.475 15.7999C17.115 15.7199 17.7749 15.6699 18.4449 15.6699Z" fill="#BB8954"/>
<path d="M40.045 16.6802C34.125 17.3302 29.825 18.2402 27.975 18.7702C29.105 19.5602 30.1851 20.4802 31.1851 21.5402C33.0151 21.1302 35.025 20.7202 37.215 20.3502C38.465 20.1402 39.765 19.9402 41.125 19.7502C41.535 19.7002 41.955 19.6402 42.395 19.5802C42.165 19.2602 41.955 18.9602 41.715 18.6602V18.6502C41.175 17.9502 40.615 17.3002 40.045 16.6802Z" fill="#BB8954"/>
<path d="M89.495 20.3199C89.275 20.1199 89.0449 19.9099 88.8149 19.7199C88.4049 19.3699 87.965 19.0399 87.545 18.7499C87.545 18.7499 87.525 18.7399 87.515 18.7199C87.465 18.6899 87.395 18.6099 87.275 18.5399C85.655 17.4499 83.915 16.6499 82.105 16.1699C82.395 16.5899 82.645 17.0399 82.915 17.4799C85.885 18.5799 88.095 19.6099 89.495 20.3199Z" fill="#BB8954"/>
<path d="M84.965 21.2501V21.2701C85.055 21.4701 85.145 21.6801 85.225 21.8701C86.025 22.1001 86.765 22.3101 87.465 22.5301C87.915 22.6701 88.325 22.8001 88.735 22.9401H88.755C89.525 23.2001 90.235 23.4501 90.875 23.7001C91.825 24.0801 92.6451 24.4101 93.3051 24.7101C92.6751 23.7801 91.995 22.9301 91.285 22.1301C88.955 21.2601 86.605 20.4901 84.255 19.8301C84.485 20.3001 84.735 20.7601 84.965 21.2501Z" fill="#BB8954"/>
<path d="M47.755 3.05986C48.015 6.99986 49.265 7.15986 50.655 7.45986C51.355 7.60986 51.805 8.05986 52.095 8.61986C52.685 9.68986 52.6851 11.0799 52.6851 11.0799C52.6851 11.0799 53.035 11.8099 54.495 11.7799C55.595 11.7599 55.9351 11.0799 55.9351 11.0799C55.9351 11.0799 56.145 9.83986 56.645 8.80986C56.965 8.15986 57.385 7.58986 57.955 7.44986C59.465 7.06986 60.695 6.97986 60.885 2.63986C59.995 3.45986 57.3949 4.05986 54.3149 4.05986C51.9149 4.05986 49.795 3.69986 48.575 3.11986H48.5551C48.1951 2.96986 47.905 2.78986 47.725 2.60986C47.725 2.75986 47.745 2.89986 47.755 3.02986V3.05986Z" fill="#BB8954"/>
<path d="M56.975 2.24C56.615 2.44 56.1251 2.6 55.5551 2.75C57.0951 2.67 58.425 2.49 59.365 2.24C60.245 2.01 60.775 1.7 60.775 1.38C60.775 1.35 60.775 1.3 60.755 1.27C60.575 0.759997 59.035 0.299996 56.875 0.0899963C56.765 0.0699963 56.665 0.0699976 56.575 0.0599976C56.245 0.0299976 55.9049 0.01 55.5649 0C55.6849 0.03 55.805 0.0599963 55.895 0.0899963C57.055 0.419996 57.765 0.879995 57.765 1.37C57.765 1.7 57.475 1.98 56.975 2.24Z" fill="#BB8954"/>
<path d="M20.995 24.9199C20.335 24.9199 19.685 25.0099 19.045 25.1899L14.855 29.9799C14.805 30.0699 14.775 30.1799 14.745 30.2799C13.985 32.5899 13.4151 35.1199 13.0551 37.8199L23.835 25.4699C23.475 25.3299 23.105 25.2099 22.745 25.1199C22.175 24.9999 21.585 24.9199 20.995 24.9199Z" fill="#BB8954"/>
<path d="M12.995 50.5999L29.8051 31.3599C29.5151 30.8299 29.205 30.3199 28.865 29.8499C28.685 29.5899 28.515 29.3499 28.325 29.1099L12.6949 47.0299C12.7549 48.2399 12.865 49.4399 12.995 50.5999Z" fill="#BB8954"/>
<path d="M32.845 40.8799C32.755 40.0799 32.605 39.2899 32.455 38.5199C32.375 38.1399 32.2851 37.7799 32.1851 37.3999L14.505 57.6799C14.585 57.9799 14.675 58.2799 14.775 58.5899V58.6099C15.015 59.3399 15.275 60.0299 15.545 60.7099L32.845 40.8799Z" fill="#BB8954"/>
<path d="M20.995 66.5298C21.445 66.5298 21.915 66.4798 22.355 66.3898L31.705 55.6798C31.795 55.4198 31.8551 55.1798 31.9351 54.9198C31.9951 54.7398 32.325 53.4798 32.375 53.2598C32.455 52.9398 32.515 52.6298 32.575 52.2898C32.755 51.3998 32.895 50.4598 32.985 49.5098L18.525 66.0898C19.295 66.3598 20.095 66.5098 20.915 66.5298H20.995Z" fill="#BB8954"/>
<path d="M41.975 67.8401C42.505 67.1401 43.005 66.4201 43.455 65.6501C43.635 65.3601 43.815 65.0601 43.985 64.7601L45.425 61.9601C45.505 61.7901 45.575 61.6001 45.645 61.4301C42.595 61.3401 39.415 61.2101 36.135 61.0601C36.115 61.1101 36.0949 61.1601 36.0649 61.2101L35.105 62.9901C34.225 64.4701 32.775 66.7001 31.705 67.8901C34.335 68.3701 37.4051 68.8301 40.9351 69.1701C41.3051 68.7501 41.655 68.3001 41.975 67.8401Z" fill="#BB8954"/>
<path d="M8.70496 28.8398H5.125C3.475 31.5498 2.23504 34.7598 1.54504 38.2898H6.71497C7.06497 34.9298 7.74496 31.7498 8.70496 28.8398Z" fill="#BB8954"/>
<path d="M6.44495 43.4201C6.44495 42.3801 6.47505 41.3301 6.55505 40.3101H1.22498C0.994976 41.8401 0.89502 43.3901 0.89502 45.0001C0.89502 48.5501 1.425 51.9101 2.375 54.9601H7.83496C6.92496 51.3701 6.44495 47.4701 6.44495 43.4201Z" fill="#BB8954"/>
<path d="M11.795 64.9702C11.465 64.4302 11.165 63.8502 10.875 63.2802C10.405 62.3602 9.96495 61.4102 9.57495 60.4102V60.3902C9.13495 59.3002 8.72502 58.1702 8.39502 56.9902H3.07495C4.31495 60.1302 6.00504 62.8502 8.04504 64.9702H11.795Z" fill="#BB8954"/>
<path d="M10.865 67.39C12.115 68.24 13.445 68.9 14.835 69.31C14.215 68.58 13.6149 67.81 13.0649 67H10.3149C10.5049 67.13 10.685 67.27 10.865 67.39Z" fill="#BB8954"/>
<path d="M24.075 73.0401C26.055 73.7401 28.355 74.4302 30.985 75.0602H31.005C31.155 75.1102 31.305 75.1501 31.475 75.1801H31.495C32.505 75.0601 33.755 74.8401 36.075 73.4001C37.715 72.4901 38.455 71.6402 38.455 71.6402L28.515 69.9102C27.085 70.6602 25.4351 70.9702 25.4351 70.9702C24.5151 71.2002 23.575 71.3201 22.605 71.3201C22.545 71.3201 22.495 71.3202 22.455 71.3002C21.915 71.3002 21.365 71.2502 20.835 71.1902C19.445 70.9802 18.0849 70.5402 16.8149 69.9102C17.6949 70.3802 19.505 71.2702 22.115 72.3002C22.715 72.5602 23.365 72.8001 24.075 73.0401Z" fill="#BB8954"/>
<path d="M49.025 39.2998C46.545 39.4198 44.215 39.5598 42.075 39.7098C41.075 39.7898 40.125 39.8598 39.215 39.9398C39.355 41.0498 39.435 42.1898 39.485 43.3298C42.695 43.0098 45.935 42.7698 49.175 42.5998C49.155 41.4898 49.115 40.3898 49.025 39.2998Z" fill="#BB8954"/>
<path d="M48.9351 48.83C45.0251 48.69 41.855 48.56 39.825 48.48C39.695 48.48 39.555 48.49 39.425 48.49C39.305 50.05 38.7449 53.82 38.4449 55.29C39.9149 55.31 41.515 55.32 43.235 55.35C44.715 55.37 46.285 55.38 47.955 55.4C48.245 53.97 48.7251 50.66 48.9351 48.83Z" fill="#BB8954"/>
<path d="M96.415 49.91C93.235 49.92 89.725 49.9 86.035 49.84C86.495 47.53 86.755 45.28 86.885 43.15C93.105 43.59 97.545 44.07 99.105 44.24C99.085 43.29 99.055 42.34 98.955 41.42V41.41C98.575 41.35 98.1551 41.29 97.6851 41.21C96.9551 41.07 96.115 40.95 95.145 40.82C93.815 40.62 92.245 40.43 90.455 40.23C89.975 40.18 89.475 40.12 88.955 40.08C88.745 40.06 88.535 40.03 88.325 40.02C87.905 39.97 87.475 39.93 87.045 39.9L87.0551 39.25H87.045C87.035 39.25 87.005 39.25 86.975 39.24C86.935 36.66 86.715 34.33 86.425 32.34C92.125 32.99 95.9851 33.68 97.5551 33.99C97.3751 33.36 97.205 32.73 96.995 32.12C95.125 31.63 91.345 30.74 86.025 29.9C85.475 27.05 84.895 25.34 84.875 25.28C84.635 24.55 84.375 23.83 84.095 23.14C83.995 22.88 83.875 22.63 83.765 22.37C83.595 21.97 83.435 21.57 83.255 21.18V21.17L83.215 21.09C82.945 20.49 82.655 19.91 82.365 19.34C81.895 18.44 81.405 17.58 80.885 16.77C80.605 16.34 80.325 15.92 80.045 15.52C79.785 15.14 79.505 14.77 79.165 14.32C78.875 13.93 78.565 13.55 78.235 13.18C77.865 12.77 77.495 12.38 77.125 12.01C76.815 11.69 76.495 11.39 76.175 11.1L75.905 10.86L75.8149 10.83C73.0149 9.89002 70.025 9.11002 66.915 8.52002L66.615 9.31002C67.435 9.79002 68.235 10.36 69.015 10.99C69.075 11.04 69.1349 11.08 69.1949 11.13C70.8949 12.53 72.4951 14.31 73.9351 16.44C74.6951 17.54 75.415 18.77 76.145 20.2C76.835 21.57 77.475 23.06 78.025 24.62C79.215 27.95 80.025 31.54 80.425 35.3C80.585 36.76 80.685 38.17 80.705 39.5C80.725 39.92 80.715 40.35 80.715 40.78C80.715 42.43 80.645 43.91 80.505 45.3C80.425 46.37 80.315 47.32 80.175 48.2C79.935 49.81 79.625 51.4 79.235 52.93C79.055 53.65 78.865 54.35 78.655 55.04C78.205 56.54 77.675 57.98 77.085 59.33C76.675 60.29 76.235 61.2 75.785 62.05C75.315 62.93 74.8151 63.77 74.3051 64.55C73.2151 66.27 71.935 67.86 70.495 69.26C69.545 70.2 66.765 72.42 65.795 73.19C65.585 73.35 65.455 73.46 65.455 73.46L64.715 74.04L65.635 74.22C66.395 74.37 67.2151 74.44 68.0551 74.44C70.5551 74.44 72.505 73.79 72.585 73.77L72.675 73.74L72.745 73.68C73.365 73.1 74.275 72.26 75.145 71.43C75.245 71.32 75.3351 71.21 75.4351 71.09C75.5051 71.08 75.565 71.08 75.645 71.08C77.545 70.93 79.395 70.66 81.145 70.36C82.745 69.19 83.395 68.18 83.395 68.18H89.965V68.24C91.205 67.86 91.925 67.6 91.925 67.6L93.3051 65.4C93.3051 65.4 95.445 62.12 96.045 60.36C96.115 60.21 96.165 60.04 96.225 59.89C94.735 60.07 89.935 60.62 82.255 61.06C83.055 59.43 83.7351 57.81 84.3051 56.19C88.4451 56.16 92.855 56.09 97.325 55.96L98.075 53.93C98.3349 52.68 98.515 51.38 98.635 50.05C98.165 50.02 97.635 50 97.035 49.97C96.825 49.93 96.615 49.92 96.415 49.91Z" fill="#BB8954"/>
<path d="M57.885 78.3801L54.295 71.1001H53.175C51.2351 73.2201 44.905 78.6101 30.585 78.6101C19.095 78.6101 13.735 72.9901 13.735 72.9901L7.41504 79.1401V83.2401H63.6949V78.6301L63.5551 78.3901H57.885V78.3801Z" fill="#BB8954"/>
<path d="M72.755 77.8601V83.2301H97.3149V78.6201L97.175 78.3801H91.755V78.3601L91.495 78.3801L87.905 71.1001H86.785C85.295 72.7401 81.165 76.3101 72.755 77.8601Z" fill="#BB8954"/>
<path d="M59.845 68.1502L62.325 71.7802C63.115 71.1402 64.205 70.2302 64.895 69.5502C66.305 68.1702 67.615 66.5702 68.765 64.7602C69.295 63.9602 69.795 63.1102 70.265 62.2402C70.345 62.0902 70.465 61.7902 70.545 61.6402C70.455 61.6402 62.245 61.6602 57.625 61.6402C58.395 59.7702 59.025 57.9202 59.535 56.1002C59.545 56.0502 59.565 56.0002 59.575 55.9502C60.475 55.9702 62.445 56.0202 65.205 56.0702C67.315 56.1102 69.8949 56.1402 72.8149 56.1602C72.9249 55.8202 73.045 55.4902 73.155 55.1502C73.365 54.4502 73.565 53.7402 73.745 53.0202C74.025 51.9202 74.255 50.7802 74.455 49.6202C69.865 49.5102 65.285 49.3802 60.975 49.2402C61.315 46.8102 61.465 44.4702 61.485 42.2602C66.285 42.2402 70.9149 42.3402 75.1949 42.5002C75.2149 41.9202 75.235 41.3402 75.235 40.7502C75.235 40.3102 75.235 39.8702 75.215 39.4502C75.215 39.3502 75.205 39.2502 75.205 39.1502C72.015 39.0302 68.505 38.9502 64.665 38.9402H63.755C62.955 38.9402 62.175 38.9402 61.405 38.9502C61.355 38.0402 61.285 37.1502 61.205 36.3002C61.005 34.3102 60.705 32.4902 60.375 30.8802C65.425 30.8802 70.0951 31.0402 74.3051 31.2802C74.1151 30.3002 73.885 29.3502 73.635 28.4102C69.405 28.0702 64.715 27.8602 59.665 27.8702C58.885 24.9302 58.135 23.2102 58.115 23.1602C57.695 22.0502 57.035 20.8402 56.285 19.6602C55.445 18.3202 54.495 17.0102 53.595 15.8902C52.665 14.7202 51.795 13.7402 51.235 13.1802C50.845 12.7802 50.4549 12.4302 50.0649 12.0802C49.4249 11.5102 48.785 10.9802 48.135 10.5302C47.715 10.2202 47.275 9.94018 46.835 9.68018C46.005 9.18018 45.105 8.74017 44.175 8.38017L44.085 8.35017C43.315 8.05017 42.645 7.85017 41.985 7.71017C41.465 7.58017 40.935 7.49018 40.265 7.43018C38.085 7.66018 35.985 7.95018 34.025 8.29018L34.045 9.14017C34.695 9.23017 35.315 9.36018 35.955 9.54018C36.325 9.64018 36.6849 9.76017 37.0649 9.89017C38.6749 10.4702 40.235 11.3402 41.725 12.4702C42.005 12.6902 42.295 12.8902 42.575 13.1302C43.175 13.6302 43.715 14.1302 44.225 14.6602C44.695 15.1402 45.135 15.6602 45.575 16.1802C46.175 16.9002 46.745 17.6502 47.285 18.4402C47.465 18.6902 47.625 18.9402 47.785 19.2102C47.945 19.4602 48.095 19.7402 48.245 20.0102C48.945 21.1802 49.6051 22.4102 50.1851 23.7102C50.8051 25.1002 51.3351 26.5702 51.8051 28.0602C52.1051 29.0202 52.385 30.0102 52.625 31.0102C52.925 32.2702 53.205 33.5402 53.405 34.8502C53.465 35.2402 53.5149 35.6202 53.5649 36.0002C53.7049 37.0502 53.825 38.1002 53.885 39.1202C53.965 40.1902 53.995 41.2902 54.005 42.3902C54.005 42.5002 54.015 42.6202 54.015 42.7302C54.015 43.5202 54.005 44.3302 53.955 45.1102C53.905 46.1302 53.835 47.1302 53.725 48.1202C53.695 48.4102 53.645 48.6902 53.615 48.9802C53.455 50.3102 53.255 51.6402 52.975 52.9402C52.825 53.6702 52.665 54.3902 52.465 55.1002C52.385 55.4402 52.2751 55.7702 52.1851 56.1102C51.8751 57.2102 51.535 58.3002 51.135 59.3702C50.895 60.0402 50.595 60.7602 50.255 61.5302C50.185 61.6902 50.125 61.8502 50.045 62.0202C49.635 62.9302 49.175 63.8402 48.615 64.8202C48.595 64.8702 46.1849 69.4902 40.9449 73.4202L41.275 74.1802C41.585 74.1302 48.795 72.8502 51.135 69.8502L53.155 68.1302H59.725H59.845V68.1502Z" fill="#BB8954"/>
</svg>
