<svg width="87" height="108" viewBox="0 0 87 108" fill="none" xmlns="http://www.w3.org/2000/svg">
<path d="M80.775 73.6099V88.4299H84.665V68.4199L80.775 73.6099Z" fill="#BB8954"/>
<path d="M68.6151 7.0602C76.0951 7.0602 82.2851 8.5802 83.4551 10.5702C83.6051 10.7902 83.675 11.0302 83.675 11.2602C83.675 13.5802 76.9351 15.4702 68.6151 15.4702C68.4651 15.4702 68.315 15.4702 68.165 15.4602V16.5702C77.585 16.3102 84.925 14.0902 84.925 11.3902C84.925 11.1002 84.835 10.8102 84.655 10.5302C83.245 8.1502 76.0351 6.3202 67.1951 6.2002C67.3051 6.4902 67.4051 6.7702 67.4951 7.0702C67.8651 7.0602 68.2351 7.0602 68.6151 7.0602Z" fill="#BB8954"/>
<path d="M84.785 22.4201C82.985 24.1601 77.085 26.0201 68.165 26.2801V28.7301C76.565 28.5201 83.5651 26.5001 85.9351 24.4401C86.5351 23.9201 86.8251 23.2801 86.8251 22.6701V14.8301C86.8251 15.4401 86.5051 16.0401 85.9351 16.6001C85.7951 16.7401 85.6251 16.8801 85.4451 17.0101L85.3851 21.2801C85.3951 21.6401 85.185 22.0301 84.785 22.4201Z" fill="#BB8954"/>
<path d="M81.925 69.6401C81.165 69.8801 80.345 70.1001 79.465 70.3001C79.465 70.3001 78.4851 70.5501 76.5551 70.8201C74.4051 71.1201 71.0651 71.4501 66.5151 71.5101C64.8651 74.4401 62.1151 76.3001 58.8751 76.3501L57.9951 77.4101L64.2451 84.9901H66.595H69.2651L74.665 78.4501L81.925 69.6401Z" fill="#BB8954"/>
<path d="M84.785 35.5402C82.985 37.2802 77.085 39.1402 68.165 39.4002V41.8502C76.565 41.6402 83.5651 39.6202 85.9351 37.5602C86.5351 37.0402 86.8251 36.4002 86.8251 35.7902V27.9502C86.8251 28.5602 86.5051 29.1602 85.9351 29.7202C85.7951 29.8602 85.6251 30.0002 85.4451 30.1302L85.3851 34.4002C85.3951 34.7702 85.185 35.1502 84.785 35.5402Z" fill="#BB8954"/>
<path d="M84.785 48.6701C82.985 50.4101 77.085 52.2701 68.165 52.5301V54.9801C76.565 54.7701 83.5651 52.7501 85.9351 50.6901C86.5351 50.1701 86.8251 49.5301 86.8251 48.9201V41.0801C86.8251 41.6901 86.5051 42.2901 85.9351 42.8501C85.7951 42.9901 85.6251 43.1301 85.4451 43.2601L85.3851 47.5301C85.3951 47.8901 85.185 48.2801 84.785 48.6701Z" fill="#BB8954"/>
<path d="M84.785 61.7899C84.525 62.0399 84.165 62.2999 83.735 62.5499C82.535 63.2499 80.6751 63.9399 78.2551 64.4799C75.5551 65.0899 72.1551 65.5299 68.1451 65.6399C68.1051 66.4899 67.9851 67.3099 67.8151 68.0999C71.3951 68.0399 74.7251 67.6399 77.5651 67.0499C81.5251 66.2299 84.5451 65.0199 85.9451 63.7999C86.5451 63.2799 86.835 62.6399 86.835 62.0299V61.7699V54.1899C86.835 54.7999 86.5151 55.3999 85.9451 55.9599C85.8051 56.0999 85.6351 56.2399 85.4551 56.3699L85.3951 60.6399C85.3951 61.0199 85.185 61.3999 84.785 61.7899Z" fill="#BB8954"/>
<path d="M2.93506 107.22H7.81506V89.2299L2.93506 83.3799V107.22Z" fill="#BB8954"/>
<path d="M49.415 83.3799L44.535 89.2299V107.22H49.415V83.3799Z" fill="#BB8954"/>
<path d="M49.6951 9.85992C49.6951 9.51992 49.585 9.19992 49.355 8.87992C48.555 7.64992 46.2551 6.54992 42.9451 5.69992C42.7551 5.79992 42.6451 6.00992 42.5651 6.32992C45.2851 7.01992 47.175 7.91992 47.835 8.91992C48.025 9.17992 48.105 9.43992 48.105 9.70992C48.105 12.3699 39.595 14.5199 29.085 14.5199C18.575 14.5199 10.0651 12.3699 10.0651 9.70992C10.0651 9.43992 10.155 9.16992 10.335 8.91992C11.825 6.63992 19.6351 4.90992 29.0751 4.90992C31.3051 4.90992 33.4451 5.00992 35.4351 5.18992C35.4451 4.91992 35.4751 4.66992 35.4951 4.40992C32.6251 4.09992 29.4751 3.91992 26.1451 3.91992C14.4651 3.91992 4.79507 6.06992 2.94507 8.87992C2.71507 9.19992 2.60504 9.51992 2.60504 9.85992C2.60504 13.1499 13.1351 15.8099 26.1351 15.8099C39.1551 15.8199 49.6951 13.1499 49.6951 9.85992Z" fill="#BB8954"/>
<path d="M0.425049 75.9599C0.615049 76.3699 0.895034 76.7799 1.28503 77.1699L1.74506 77.5799C1.96506 77.7599 2.21505 77.9399 2.48505 78.1199C2.60505 78.1999 2.74507 78.2799 2.88507 78.3599C3.03507 78.4499 3.18504 78.5499 3.35504 78.6399C3.51504 78.7299 3.69505 78.8099 3.86505 78.8999C4.02505 78.9799 4.17502 79.0599 4.33502 79.1399C4.52502 79.2299 4.72504 79.3099 4.91504 79.3899C5.08504 79.4599 5.25506 79.5399 5.43506 79.6099C5.64506 79.6899 5.86507 79.7699 6.07507 79.8499C6.26507 79.9199 6.44508 79.9899 6.64508 80.0599C6.86508 80.1399 7.10503 80.2099 7.34503 80.2799C7.55503 80.3499 7.75503 80.4099 7.96503 80.4799C8.20503 80.5499 8.45508 80.6199 8.70508 80.6899C8.92508 80.7499 9.14507 80.8099 9.38507 80.8699C9.64507 80.9399 9.91506 80.9999 10.1851 81.0599C10.4251 81.1199 10.6551 81.1699 10.8951 81.2199C11.1651 81.2799 11.4351 81.3299 11.7051 81.3899C11.7151 81.3899 11.7351 81.3899 11.7451 81.3999C11.9851 81.4499 12.235 81.4999 12.475 81.5499C12.775 81.61 13.095 81.6599 13.405 81.7099C13.645 81.7499 13.8951 81.7899 14.1351 81.8299C14.4751 81.8799 14.815 81.9299 15.155 81.9799C15.385 82.0099 15.6251 82.0499 15.8651 82.0799C16.2351 82.1299 16.615 82.1699 16.985 82.2099C17.205 82.2299 17.4251 82.2599 17.6451 82.2799C18.0551 82.3199 18.4751 82.3599 18.8951 82.3999C19.0851 82.4199 19.275 82.4299 19.465 82.4499C19.935 82.4899 20.4051 82.5199 20.8851 82.5499C21.0351 82.5599 21.1751 82.5699 21.3251 82.5799C21.8551 82.6099 22.3951 82.6299 22.9451 82.6499C23.0351 82.6499 23.125 82.66 23.215 82.66C23.825 82.68 24.4451 82.6899 25.0651 82.6999C25.0751 82.6999 25.085 82.6999 25.095 82.6999H25.1251C25.4651 82.6999 25.7951 82.7099 26.1351 82.7099H26.1851C31.5251 82.6999 36.4851 82.21 40.6151 81.38C45.5151 80.39 49.2451 78.9099 51.0051 77.1699C51.3951 76.7899 51.6751 76.3799 51.8651 75.9699C52.0251 75.6199 52.1251 75.2599 52.1251 74.8899V74.1999L50.3251 73.9299L50.3151 74.63V74.8899C50.3151 74.8999 50.3151 74.9099 50.3151 74.9199V75.3099C50.2651 75.3899 50.215 75.4699 50.165 75.5499C50.045 75.82 49.8451 76.0899 49.5651 76.3699C49.5451 76.3899 49.5251 76.3999 49.5151 76.4199C48.3851 77.6599 46.695 78.4499 44.725 78.8999C43.655 79.2599 42.4351 79.5999 41.0751 79.8999C37.1851 80.7699 32.1751 81.3599 26.1951 81.3699H26.1451C25.8551 81.3699 25.575 81.3599 25.285 81.3599V77.2499V74.7899C25.295 74.7899 25.3151 74.7899 25.3251 74.7899V73.4399C25.3151 73.4399 25.295 73.4399 25.285 73.4399C23.955 73.4299 22.6551 73.3899 21.3851 73.3199C21.3051 73.3199 21.235 73.3099 21.155 73.3099C20.605 73.2799 20.055 73.2399 19.525 73.1999C19.385 73.1899 19.2551 73.1799 19.1151 73.1699C18.6351 73.1299 18.1651 73.0899 17.6951 73.0399C17.5151 73.0199 17.345 72.9999 17.165 72.9799C16.745 72.9299 16.315 72.8799 15.905 72.8299C15.705 72.7999 15.5051 72.7799 15.3051 72.7499C14.9251 72.6999 14.545 72.6399 14.165 72.5899C13.955 72.5599 13.745 72.5199 13.545 72.4899C13.195 72.4299 12.8351 72.3699 12.4951 72.3099C12.2851 72.2699 12.0951 72.2299 11.8951 72.1899C11.5651 72.1199 11.225 72.0599 10.905 71.9899C10.705 71.9499 10.5151 71.8999 10.3251 71.8599C10.0151 71.7899 9.69508 71.7099 9.39508 71.6399C9.21508 71.5899 9.04505 71.5399 8.86505 71.4999C8.56505 71.4199 8.26504 71.3399 7.97504 71.2499C7.81504 71.1999 7.66507 71.1499 7.50507 71.0999C7.21507 71.0099 6.92503 70.9199 6.65503 70.8299C6.51503 70.7799 6.37506 70.7299 6.24506 70.6799C5.97506 70.5799 5.70507 70.48 5.44507 70.38C5.31507 70.33 5.20502 70.2799 5.08502 70.2299C4.83502 70.1199 4.57503 70.02 4.34503 69.91C4.22503 69.86 4.12508 69.7999 4.01508 69.7399C3.79508 69.6299 3.56505 69.52 3.36505 69.41C3.23505 69.34 3.12507 69.2699 3.00507 69.1999C2.83507 69.0999 2.65506 68.9999 2.49506 68.8999C2.22506 68.7199 1.98507 68.5399 1.75507 68.3599L1.29504 67.9599C0.575044 67.2499 0.175049 66.4699 0.175049 65.6899V74.9699C0.175049 75.2499 0.265049 75.6099 0.425049 75.9599Z" fill="#BB8954"/>
<path d="M51.025 61.16C51.745 60.4 52.1451 59.57 52.1451 58.72V48C52.1451 48.84 51.745 49.66 51.025 50.42C50.845 50.61 50.635 50.8 50.415 50.98L50.335 57.41V58.71C50.335 59.22 50.0851 59.75 49.5751 60.28C47.5751 62.38 41.555 64.62 32.465 65.35V66.79C41.325 66.1 48.385 63.94 51.025 61.16Z" fill="#BB8954"/>
<path d="M1.29504 61.16L1.75507 61.58C1.86507 61.68 2.00507 61.78 2.13507 61.88C1.96507 60.95 1.86505 59.95 1.86505 58.92C1.86505 56.23 2.49506 53.81 3.49506 52.08C3.44506 52.05 3.39504 52.03 3.35504 52C3.22504 51.92 3.11506 51.85 2.99506 51.77C2.82506 51.66 2.64506 51.56 2.49506 51.45C2.22506 51.26 1.98507 51.07 1.75507 50.87L1.29504 50.44C0.575044 49.68 0.175049 48.85 0.175049 48.02V58.74C0.175049 59.57 0.575044 60.39 1.29504 61.16Z" fill="#BB8954"/>
<path d="M51.025 43.6699C51.745 42.9299 52.1451 42.1299 52.1451 41.3199V30.8999C52.1451 31.7099 51.745 32.5099 51.025 33.2499C50.845 33.4399 50.635 33.6199 50.405 33.7999L50.3251 39.9199V41.3099C50.3251 41.7999 50.0751 42.3099 49.5651 42.8299C47.1451 45.3099 38.7951 47.9899 26.1951 47.9999H26.1451C25.8551 47.9999 25.575 47.9899 25.285 47.9899V40.3699C25.295 40.3699 25.3151 40.3699 25.3251 40.3699V38.9699C25.3151 38.9699 25.295 38.9699 25.285 38.9699C23.955 38.9599 22.6551 38.9099 21.3851 38.8399C21.3051 38.8399 21.2251 38.8299 21.1451 38.8299C20.5951 38.7999 20.0551 38.7599 19.5151 38.7199C19.3751 38.7099 19.245 38.6999 19.105 38.6799C18.625 38.6399 18.145 38.5899 17.675 38.5399C17.495 38.5199 17.325 38.4999 17.155 38.4799C16.725 38.4299 16.3051 38.3799 15.8951 38.3299C15.6951 38.2999 15.495 38.2699 15.295 38.2399C14.915 38.1899 14.535 38.1299 14.165 38.0699C13.955 38.0399 13.745 37.9999 13.545 37.9599C13.195 37.8999 12.8451 37.8399 12.4951 37.7699C12.2851 37.7299 12.0851 37.6899 11.8851 37.6399C11.5551 37.5699 11.225 37.4999 10.905 37.4299C10.705 37.3899 10.5151 37.3399 10.3251 37.2899C10.0151 37.2099 9.69508 37.1399 9.39508 37.0599C9.21508 37.0099 9.03504 36.9599 8.85504 36.9099C8.55504 36.8299 8.25503 36.7399 7.96503 36.6599C7.80503 36.6099 7.64506 36.5599 7.49506 36.5099C7.20506 36.4199 6.91508 36.3299 6.64508 36.2299C6.50508 36.1799 6.36505 36.1299 6.23505 36.0699C5.96505 35.9699 5.69506 35.8699 5.43506 35.7599C5.30506 35.7099 5.18505 35.6499 5.05505 35.5899C4.80505 35.4799 4.56502 35.3799 4.33502 35.2699C4.21502 35.2099 4.09504 35.1499 3.97504 35.0899C3.76504 34.9799 3.54503 34.8699 3.34503 34.7599C3.21503 34.6899 3.10505 34.6099 2.98505 34.5399C2.81505 34.4399 2.63505 34.3299 2.48505 34.2299C2.21505 34.0499 1.97506 33.8599 1.74506 33.6699L1.28503 33.2499C0.565034 32.5099 0.165039 31.7099 0.165039 30.8999V41.3099C0.165039 42.1199 0.565034 42.9199 1.28503 43.6599L1.74506 44.0799C1.96506 44.2699 2.21505 44.4599 2.48505 44.6399C2.64505 44.7499 2.82506 44.8499 2.99506 44.9599C3.11506 45.0299 3.22503 45.1099 3.34503 45.1799C3.54503 45.2999 3.77506 45.4099 3.99506 45.5199C4.10506 45.5799 4.21502 45.6399 4.33502 45.6999C4.56502 45.8099 4.82507 45.9199 5.07507 46.0299C5.19507 46.0799 5.31507 46.1399 5.44507 46.1899C5.70507 46.2999 5.97506 46.3999 6.24506 46.4999C6.38506 46.5499 6.51503 46.5999 6.65503 46.6499C6.93503 46.7499 7.22508 46.8399 7.51508 46.9299C7.67508 46.9799 7.82505 47.0299 7.98505 47.0799C8.27505 47.1699 8.58507 47.2499 8.88507 47.3399C9.05507 47.3899 9.22503 47.4399 9.40503 47.4899C9.71503 47.5699 10.025 47.6499 10.345 47.7199C10.535 47.7699 10.725 47.8099 10.915 47.8599C11.235 47.9299 11.575 47.9999 11.905 48.0699C12.105 48.1099 12.3051 48.1499 12.5151 48.1899C12.8551 48.2599 13.2151 48.3199 13.5651 48.3799C13.7751 48.4199 13.9751 48.4499 14.1851 48.4899C14.5651 48.5499 14.945 48.6099 15.335 48.6599C15.535 48.6899 15.725 48.7199 15.925 48.7399C16.345 48.7999 16.7651 48.8499 17.1951 48.8999C17.3651 48.9199 17.535 48.9399 17.715 48.9599C18.185 49.0099 18.6651 49.0499 19.1451 49.0999C19.2851 49.1099 19.4151 49.1199 19.5551 49.1399C20.0951 49.1799 20.6351 49.2199 21.1851 49.2499C21.2651 49.2499 21.345 49.2599 21.425 49.2599C22.965 49.3499 24.5551 49.3999 26.1851 49.3999H26.235C37.905 49.3899 47.785 46.9799 51.025 43.6699Z" fill="#BB8954"/>
<path d="M1.29504 26.4401L1.75507 26.8401C1.97507 27.0201 2.22506 27.2001 2.49506 27.3701C2.64506 27.4701 2.82505 27.5601 2.98505 27.6601C3.10505 27.7301 3.22504 27.8101 3.35504 27.8801C3.55504 27.9901 3.77506 28.0901 3.99506 28.1901C4.11506 28.2501 4.22503 28.3101 4.34503 28.3601C4.57503 28.4701 4.82507 28.5701 5.07507 28.6701C5.19507 28.7201 5.31507 28.7701 5.44507 28.8201C5.70507 28.9201 5.97506 29.0101 6.24506 29.1101C6.38506 29.1601 6.51503 29.2101 6.65503 29.2601C6.92503 29.3501 7.21507 29.4401 7.50507 29.5301C7.66507 29.5801 7.81504 29.6301 7.97504 29.6701C8.26504 29.7501 8.56505 29.8301 8.86505 29.9101C9.04505 29.9601 9.21508 30.0001 9.39508 30.0501C9.69508 30.1301 10.015 30.2001 10.335 30.2701C10.525 30.3101 10.715 30.3601 10.915 30.4001C11.235 30.4701 11.5651 30.5301 11.8951 30.6001C12.0951 30.6401 12.2951 30.6801 12.5051 30.7201C12.8451 30.7801 13.2051 30.8401 13.5551 30.9001C13.7651 30.9301 13.965 30.9701 14.175 31.0001C14.545 31.0601 14.9351 31.1101 15.3151 31.1601C15.5151 31.1901 15.715 31.2101 15.915 31.2401C16.325 31.2901 16.745 31.3401 17.175 31.3801C17.355 31.4001 17.5251 31.4201 17.7051 31.4401C18.1751 31.4901 18.6451 31.5301 19.1251 31.5701C19.2651 31.5801 19.395 31.5901 19.535 31.6001C20.075 31.6401 20.615 31.6801 21.175 31.7101C21.255 31.7101 21.325 31.7201 21.405 31.7201C22.955 31.8001 24.545 31.8501 26.165 31.8501H26.215C37.915 31.8401 47.795 29.5701 51.035 26.4401C51.755 25.7401 52.155 24.9901 52.155 24.2201V14.3701C52.155 15.1401 51.755 15.8901 51.035 16.5901C50.855 16.7701 50.6451 16.9401 50.425 17.1101L50.345 23.3001V24.2201C50.345 24.6801 50.095 25.1601 49.585 25.6501C47.165 27.9901 38.815 30.5201 26.215 30.5301H26.165C25.875 30.5301 25.5951 30.5201 25.3051 30.5201V23.3101C25.3151 23.3101 25.335 23.3101 25.345 23.3101V21.9901C25.335 21.9901 25.3151 21.9901 25.3051 21.9901C23.9751 21.9801 22.675 21.9401 21.405 21.8701C21.325 21.8701 21.255 21.8601 21.175 21.8601C20.625 21.8301 20.075 21.7901 19.535 21.7501C19.395 21.7401 19.2651 21.7301 19.1251 21.7201C18.6451 21.6801 18.1651 21.6401 17.6951 21.5901C17.5251 21.5701 17.345 21.5501 17.175 21.5301C16.745 21.4801 16.325 21.4401 15.915 21.3801C15.715 21.3501 15.5151 21.3301 15.3151 21.3001C14.9351 21.2501 14.545 21.2001 14.175 21.1401C13.965 21.1101 13.7651 21.0701 13.5651 21.0401C13.2051 20.9801 12.8551 20.9201 12.5051 20.8601C12.3051 20.8201 12.105 20.7801 11.905 20.7401C11.575 20.6801 11.235 20.6101 10.915 20.5401C10.715 20.5001 10.535 20.4501 10.335 20.4101C10.015 20.3401 9.70508 20.2701 9.39508 20.1901C9.21508 20.1501 9.04505 20.1001 8.86505 20.0501C8.56505 19.9701 8.26504 19.8901 7.97504 19.8101C7.81504 19.7601 7.66507 19.7101 7.50507 19.6701C7.21507 19.5801 6.92503 19.5001 6.65503 19.4001C6.51503 19.3501 6.38506 19.3001 6.24506 19.2501C5.97506 19.1501 5.69507 19.0601 5.44507 18.9601C5.31507 18.9101 5.20507 18.8601 5.07507 18.8101C4.82507 18.7101 4.57503 18.6101 4.34503 18.5001C4.22503 18.4501 4.11507 18.3901 4.00507 18.3301C3.78507 18.2301 3.56505 18.1201 3.36505 18.0101C3.24505 17.9401 3.13508 17.8701 3.01508 17.8001C2.84508 17.7001 2.66507 17.6001 2.50507 17.5001C2.23507 17.3301 1.99508 17.1501 1.76508 16.9701L1.30505 16.5701C0.705054 15.9801 0.345046 15.3601 0.235046 14.7201C0.215046 14.6001 0.185059 14.4701 0.185059 14.3501V14.7201V24.2001C0.175059 24.9901 0.575044 25.7401 1.29504 26.4401Z" fill="#BB8954"/>
<path d="M42.8851 84.4399L37.855 90.8299L29.225 101.78H28.105C27.085 99.0399 25.3251 89.3599 23.9351 86.0099C23.3151 85.9999 22.695 85.9799 22.085 85.9399C18.695 85.7599 15.5451 85.3799 12.7551 84.8399C10.9751 84.4999 9.34508 84.0999 7.89508 83.6499L14.855 92.0999L23.7551 102.9H26.7051H30.0551L36.835 94.6799L45.965 83.6099C45.015 83.9099 43.9951 84.1899 42.8851 84.4399Z" fill="#BB8954"/>
<path d="M56.1151 72.4598C56.3551 72.4998 56.5851 72.5098 56.8151 72.5098C60.0051 72.5098 62.415 69.1998 62.415 64.8198V63.3398C62.045 63.3998 61.645 63.4298 61.225 63.4298C60.725 63.4298 60.265 63.3798 59.845 63.2998V64.6098C59.845 67.3298 58.485 69.3798 56.675 69.3798C56.555 69.3798 56.4251 69.3698 56.3051 69.3498L45.1951 67.6598C44.5851 67.6598 44.165 68.2698 44.165 69.1398C44.165 70.0298 44.5551 70.6798 45.1351 70.7698L56.1151 72.4598Z" fill="#BB8954"/>
<path d="M63.595 60.7598C63.855 60.5998 64.0151 60.4098 64.0151 60.1998V51.0298C63.4051 51.4298 62.385 51.6898 61.225 51.6898C60.065 51.6898 59.0451 51.4298 58.4351 51.0298V60.1998C58.4351 60.3798 58.565 60.5498 58.775 60.6998C59.245 61.0398 60.165 61.2698 61.225 61.2698C62.235 61.2698 63.105 61.0698 63.595 60.7598Z" fill="#BB8954"/>
<path d="M59.845 47.73C59.385 47.83 59.0151 47.98 58.7651 48.16C58.6151 48.27 58.515 48.39 58.465 48.51C58.445 48.56 58.425 48.61 58.425 48.66C58.425 49.25 59.675 49.74 61.215 49.74C62.755 49.74 64.0051 49.26 64.0051 48.66C64.0051 48.61 63.985 48.56 63.965 48.51C63.905 48.36 63.785 48.22 63.585 48.1C63.305 47.92 62.8951 47.78 62.3951 47.69V11.59C62.3951 6.95 59.655 2.76 56.285 2.24L41.925 0.0500031C41.685 0.0100031 41.455 0 41.225 0C38.185 0 37.825 2.24 37.405 5.73C37.375 5.82 37.3651 6.03 37.3651 6.2C37.3951 6.76 37.915 7.23 38.595 7.34C38.685 7.35 38.765 7.36 38.855 7.36C39.295 7.36 39.655 7.18 39.835 6.89L39.905 6.77L39.9351 6.66L40.0051 6.49V6.42C40.2651 4.94 40.0651 3.13 41.3651 3.13C41.4851 3.13 41.615 3.14 41.735 3.16L56.095 5.36C58.115 5.67 59.8251 8.44 59.8251 11.41V47.73H59.845Z" fill="#BB8954"/>
<path d="M15.235 50.76C14.935 50.77 14.645 50.83 14.355 50.91C17.325 51.42 19.765 55.12 19.985 59.73C20.205 64.34 18.1151 68.26 15.2051 69.04C15.4951 69.09 15.795 69.12 16.095 69.11C19.455 68.95 21.9851 64.72 21.7451 59.65C21.5151 54.58 18.595 50.6 15.235 50.76Z" fill="#BB8954"/>
<path d="M17.465 59.8502C17.225 54.7802 14.3051 50.8002 10.9451 50.9602C7.58508 51.1202 5.05505 55.3502 5.29505 60.4202C5.53505 65.4902 8.45507 69.4702 11.8151 69.3102C15.1751 69.1502 17.705 64.9102 17.465 59.8502ZM7.19508 60.3302C7.03508 56.8502 8.77503 53.9402 11.085 53.8302C13.395 53.7202 15.4051 56.4602 15.5651 59.9402C15.7251 63.4202 13.9851 66.3302 11.6751 66.4402C9.36506 66.5502 7.36508 63.8102 7.19508 60.3302Z" fill="#BB8954"/>
</svg>
