<svg width="101" height="86" viewBox="0 0 101 86" fill="none" xmlns="http://www.w3.org/2000/svg">
<path d="M94.2385 44.3196C94.2385 44.3196 99.1985 45.0796 96.5885 49.1296L98.4485 52.0796C98.4485 52.0796 103.178 46.1096 97.6185 38.5996C97.6185 38.5996 95.8985 34.0096 80.3385 32.8896C64.7785 31.7696 55.7885 30.6696 52.4585 37.1296C49.1385 43.5896 61.8785 46.9296 68.1885 47.0596C68.1885 47.0596 62.4385 43.2796 65.4485 38.3896C68.4585 33.4896 88.5785 33.6496 92.0185 39.0596C92.0185 39.0596 93.7785 43.5496 91.6585 44.7096C89.5385 45.8696 85.2685 43.0596 84.7285 47.2996C84.7285 47.2996 92.4385 48.9096 92.7085 59.3996C92.9585 69.0796 85.2985 67.5796 75.1885 75.9596C75.1885 75.9596 73.7385 77.0796 74.5685 78.3996C75.3985 79.7196 75.9885 78.1796 77.9685 76.7496C79.9485 75.3296 86.1885 72.1296 89.2885 70.8296C97.0485 67.5796 98.5085 64.5096 98.7085 61.4296C98.9985 56.9096 94.3685 49.1296 94.3685 49.1296C94.3685 49.1296 96.3085 47.2096 94.2385 44.3196ZM95.2385 54.4596C100.738 62.9296 94.2485 66.5896 94.2485 66.5896C97.2785 63.8096 95.2385 54.4596 95.2385 54.4596Z" fill="#BB8954"/>
<path d="M88.6685 54.5998C88.2985 50.1998 84.3485 50.5398 84.3485 50.5398C83.1685 57.1198 65.5585 52.4298 57.1785 48.3098C48.8085 44.1898 50.6785 40.5098 50.6785 40.5098C46.1585 45.7598 61.3885 53.5698 73.0785 55.4598C84.7785 57.3498 88.6685 54.5998 88.6685 54.5998Z" fill="#BB8954"/>
<path d="M42.3685 64.7496C37.3985 63.5396 33.8385 64.4296 33.8385 64.4296C33.8385 64.4296 50.9585 70.0096 48.1585 74.4096C45.3585 78.8096 25.2385 72.2496 21.4985 70.5796C17.7585 68.9196 12.3885 63.3096 15.6185 59.8296C18.8485 56.3396 26.3985 59.6496 26.3985 59.6496C26.3985 59.6496 21.7285 54.0096 16.9485 53.8696C12.1685 53.7296 9.64847 46.5596 9.44847 41.9196C9.44847 41.9196 6.89847 53.1896 15.0585 56.2396C15.0585 56.2396 8.40847 61.4096 4.53847 57.1696C4.53847 57.1696 1.78847 54.6096 4.63847 48.7196C4.63847 48.7196 5.16848 53.8896 8.15848 54.8596C8.15848 54.8596 5.18847 48.2396 6.58847 41.9396C7.99847 35.6396 6.63847 34.5096 5.18847 32.8196C1.79847 28.8396 6.18846 25.8296 3.56846 25.8296C3.56846 25.8296 0.708469 28.1496 1.87847 32.5796C3.04847 37.0096 3.78847 42.8296 2.57847 48.5696C1.36847 54.3096 -1.31154 60.2596 3.17846 65.2696C3.17846 65.2696 4.77846 60.6196 10.6785 60.8796C10.6785 60.8796 5.55847 63.9796 5.88847 70.3196C6.21847 76.6596 18.1785 80.6996 27.9185 83.0996C37.6585 85.4996 47.3585 88.1296 53.7085 81.4196C60.0585 74.7096 47.3385 65.9596 42.3685 64.7496ZM24.0685 80.4496C4.89846 74.6796 8.98846 67.0496 8.98846 67.0496C8.98846 67.0496 8.61847 73.9096 24.7585 78.2196C35.4485 81.0696 44.1385 83.0296 50.6185 80.7196C50.6185 80.7096 47.8585 87.6096 24.0685 80.4496Z" fill="#BB8954"/>
<path d="M38.2185 41.6999C29.4885 41.5599 15.2785 40.3999 15.9085 34.2099C15.9085 34.2099 16.6185 35.4899 24.1385 36.3099C30.0285 36.9499 41.9585 35.2999 46.8485 34.5599C48.5785 32.6199 50.7785 30.7599 53.4285 29.8299C62.2585 26.7199 67.9785 29.6999 67.9785 29.6999C67.9785 29.6999 71.0485 20.6199 62.4985 19.8999C62.4985 19.8999 64.3585 25.6599 55.3085 28.4199C46.2585 31.1799 31.5385 35.0999 25.1185 32.4099C18.6985 29.7099 27.2985 25.5499 27.2985 25.5499C27.2985 25.5499 16.1785 27.9799 14.2285 33.5799C12.4285 38.7599 21.1985 43.1999 38.2185 41.6999Z" fill="#BB8954"/>
<path d="M35.1184 19.8996C35.1184 19.8996 36.2184 18.4296 38.9084 17.1996C39.6984 16.8396 43.0284 15.8296 43.0284 15.8296C43.0284 15.8296 29.1884 16.0496 18.8984 26.7196C18.8984 26.7196 24.3784 23.0096 28.0484 21.5596C31.4684 20.2196 35.1184 19.8996 35.1184 19.8996Z" fill="#BB8954"/>
<path d="M40.6385 21.9798C40.6385 21.9798 48.2585 21.2398 54.7085 20.7198C61.1585 20.1998 59.9285 17.4298 59.9285 17.4298C59.9285 17.4298 58.8985 14.5798 60.0685 12.7198C61.2385 10.8598 60.0685 7.64981 60.0685 7.64981C60.0685 7.64981 61.4085 7.47981 63.5885 9.74981C65.7685 12.0198 65.1285 15.6198 65.1285 15.6198C67.7485 11.3398 66.0485 7.76981 62.2385 5.67981C60.2485 4.58981 59.8085 2.43981 59.8485 0.639812C59.8685 -0.0501878 58.9185 -0.25019 58.6585 0.37981C57.9285 2.15981 57.3485 4.48981 57.1885 6.84981C56.9185 10.8698 57.4785 12.6598 54.7085 13.8798C51.9385 15.1098 48.5185 15.0498 44.6885 16.8098C40.8585 18.5698 40.6385 21.9798 40.6385 21.9798Z" fill="#BB8954"/>
<path d="M22.1085 53.8496C27.8285 53.0996 32.6985 55.8197 39.0685 58.9997C45.4384 62.1897 51.5885 68.5597 51.5885 68.5597C49.6785 61.9997 41.5985 58.6296 33.5385 55.4596C25.4785 52.2896 22.1085 53.8496 22.1085 53.8496Z" fill="#BB8954"/>
<path d="M83.2284 47.57C83.2284 47.57 82.2684 46.91 80.9384 46.91C77.5584 46.9 73.6384 47.11 70.5284 47.28C70.5284 47.29 77.5584 49.32 83.2284 47.57Z" fill="#BB8954"/>
</svg>
