<svg width="113" height="109" viewBox="0 0 113 109" fill="none" xmlns="http://www.w3.org/2000/svg">
<path d="M8.48001 52.3701V68.8801C8.50001 68.8701 8.51 68.8701 8.53 68.8701L9.10001 68.7001C9.68001 68.5201 10.38 68.3301 11.13 68.1501V52.3701H8.48001Z" fill="#BB8954"/>
<path d="M17.54 52.3701V68.3901C18.39 68.7401 19.28 69.1701 20.19 69.5701V52.3701H17.54Z" fill="#BB8954"/>
<path d="M26.61 52.3701V70.4001C26.83 70.3101 27.05 70.2201 27.26 70.1001C27.77 69.8101 28.45 69.4601 29.26 69.1301V52.3801H26.61V52.3701Z" fill="#BB8954"/>
<path d="M35.67 52.3701V68.0901C36.58 68.1801 37.46 68.3801 38.32 68.6801V52.3701H35.67Z" fill="#BB8954"/>
<path d="M47.39 52.3701H44.74V71.4901C44.74 71.7501 44.85 71.9701 45 72.1701C45.73 72.2701 46.5 72.3201 47.02 72.3401C47.25 72.1201 47.4 71.8201 47.4 71.4901V52.3701H47.39Z" fill="#BB8954"/>
<path d="M57.2 38.3599H61.73V34.3199C61.73 33.8699 61.33 33.4999 60.83 33.4999H58.2V20.8999H57.2H56.42H55.42V33.4999H52.79C52.29 33.4999 51.89 33.8699 51.89 34.3199V38.3599H56.42H57.2Z" fill="#BB8954"/>
<path d="M61.5 58.8601L57.35 53.3001V51.3101H56.28V53.3001L52.13 58.8601C51.82 59.2701 51.65 59.7901 51.65 60.3301V72.1101C51.98 72.0301 52.29 71.9501 52.54 71.8401C54.51 71.0401 56.92 70.2201 59.91 70.2201C60.6 70.2201 61.29 70.2701 61.99 70.3601V60.3301C61.98 59.8001 61.81 59.2801 61.5 58.8601Z" fill="#BB8954"/>
<path d="M50.8 50.1502H56.41H62.84V42.5202C62.84 41.3702 61.82 40.4302 60.56 40.4302H57.23H56.41H53.08C51.82 40.4302 50.8 41.3602 50.8 42.5102C50.8 43.0302 50.34 43.4502 49.77 43.4502H47.6H46.18H6.84V48.1002H50.81V50.1502H50.8Z" fill="#BB8954"/>
<path d="M106.15 43.4502H66.03V48.1002H106.15V43.4502Z" fill="#BB8954"/>
<path d="M105.15 52.3701H102.5V70.0401C103.28 70.1501 104.01 70.2801 104.66 70.4301C104.82 70.4201 104.99 70.4001 105.15 70.3901V52.3701Z" fill="#BB8954"/>
<path d="M93.43 52.3701V70.0701C94.33 69.9501 95.21 69.8701 96.08 69.8301V52.3701H93.43Z" fill="#BB8954"/>
<path d="M84.37 52.3701V72.6701C85.26 72.4501 86.15 72.1901 87.02 71.9001V52.3701H84.37Z" fill="#BB8954"/>
<path d="M77.96 52.3701H75.31V73.4101C75.31 73.5801 75.35 73.7401 75.42 73.8801C76.19 73.8601 77.02 73.8101 77.9 73.7301C77.93 73.6201 77.97 73.5201 77.97 73.4001V52.3701H77.96Z" fill="#BB8954"/>
<path d="M66.24 52.3701V71.4701C66.98 71.7601 67.73 72.0901 68.49 72.4801C68.62 72.5501 68.76 72.6201 68.89 72.6901V52.3701H66.24Z" fill="#BB8954"/>
<path d="M11.83 87.5798C14.52 90.3898 18.43 92.2298 22.87 93.3998H60.19C33.56 87.6998 24.6 77.1998 20.55 73.1698C16.48 69.1298 12.59 70.7998 9.88 71.6298C8.22 72.1398 7.29999 72.2398 6.82999 72.2398V75.8798C7.39999 79.2998 8.72999 84.3498 11.83 87.5798Z" fill="#BB8954"/>
<path d="M84.37 93.4001C86.01 93.3001 101.89 93.3701 106.15 93.3901V90.5401C56.25 90.5601 43.17 76.4401 39.32 72.9501C35.44 69.4401 31.74 71.3301 29.44 72.5701C27.14 73.8101 25.31 73.1601 25.31 73.1601C44.8 90.4401 69.87 93.0701 79.91 93.3901H84.37V93.4001Z" fill="#BB8954"/>
<path d="M106.15 88.26V85.86C80.37 84.63 71.44 77.89 66.29 75.08C61.08 72.25 57.48 73.26 54.35 74.6C51.22 75.94 47.14 75.48 47.14 75.48C69.78 88.59 100.78 88.39 106.15 88.26Z" fill="#BB8954"/>
<path d="M106.15 83.1699V74.2699C104.27 73.3299 99.04 71.5099 90.02 74.1799C78.82 77.4999 74.73 76.3999 74.73 76.3999C74.73 76.3999 85.63 81.2999 93.88 82.3099C99.15 82.9499 104.23 83.1199 106.15 83.1699Z" fill="#BB8954"/>
<path d="M112.85 40.35C112.85 36.18 110.52 32.36 106.82 30.45L61.77 7.21V0H51.85V6.88L6.16 30.45C2.45 32.36 0.130005 36.18 0.130005 40.35V96.69V98.18V99.39L4.29999 99.7V108.51H10.43V100.15L56.5 103.56L101.9 100.2V108.51H108.03V99.75L112.87 99.39V98.18V40.35H112.85ZM2.82999 40.43H2.85999C2.98999 37.15 4.85999 34.17 7.79999 32.66L52.85 9.41H60.13L105.18 32.66C108.12 34.18 109.98 37.15 110.12 40.43H110.15V40.8V94.65V96.69H109.51H2.82999V94.65V93.41V40.8V40.43Z" fill="#BB8954"/>
</svg>
